<?xml version="1.0" standalone="no"?>
<!DOCTYPE svg PUBLIC "-//W3C//DTD SVG 20010904//EN"
 "http://www.w3.org/TR/2001/REC-SVG-20010904/DTD/svg10.dtd">
<svg version="1.0" xmlns="http://www.w3.org/2000/svg"
 width="600.000000pt" height="276.000000pt" viewBox="0 0 600.000000 276.000000"
 preserveAspectRatio="xMidYMid meet">

<g transform="translate(0.000000,276.000000) scale(0.100000,-0.100000)"
fill="#000000" stroke="none">
<path d="M3250 2738 c-39 -9 -59 -25 -150 -117 -58 -60 -141 -135 -185 -168
-102 -78 -205 -178 -279 -271 -32 -40 -70 -78 -84 -85 -15 -6 -39 -19 -54 -29
-25 -17 -31 -17 -110 -2 -110 21 -154 14 -330 -52 -154 -57 -222 -74 -294 -74
-24 0 -82 -13 -129 -29 -101 -35 -171 -46 -445 -67 -113 -8 -261 -26 -330 -40
-158 -30 -190 -30 -440 10 -113 18 -209 30 -215 27 -11 -6 60 -20 289 -56 183
-29 204 -29 381 4 61 11 218 29 350 41 226 19 389 45 435 70 11 6 70 17 132
25 93 11 140 24 263 71 141 54 156 57 240 58 108 1 133 -6 114 -32 -11 -14
-11 -15 1 -4 22 19 40 14 40 -10 0 -21 3 -20 33 14 38 43 84 71 74 44 -4 -9
-2 -16 3 -16 6 0 10 4 10 9 0 16 105 146 185 230 44 46 123 116 175 156 52 40
137 116 188 168 81 84 98 97 140 105 58 13 111 3 177 -30 62 -32 85 -58 166
-178 66 -100 173 -213 255 -268 27 -19 62 -51 77 -72 15 -22 42 -49 60 -61 30
-22 31 -22 14 -2 -10 12 -15 23 -10 25 4 3 3 4 -4 2 -6 -1 -19 6 -28 16 -15
17 -15 19 2 23 15 4 15 5 -3 6 -12 0 -24 7 -27 15 -3 8 -40 40 -83 72 -92 69
-174 150 -220 219 l-34 50 252 5 253 6 -256 2 -257 2 -32 51 c-68 105 -196
162 -310 137z"/>
<path d="M3117 2530 c-86 -117 -415 -450 -498 -506 -38 -25 -69 -47 -69 -50 0
-31 171 95 302 224 70 69 131 122 135 118 11 -11 -237 -248 -315 -300 -111
-73 -117 -101 -43 -191 68 -85 122 -120 183 -120 41 0 46 -2 31 -12 -9 -7 -21
-13 -26 -13 -4 0 -5 -4 -2 -10 15 -25 102 50 165 143 51 77 108 207 134 307
18 69 31 100 53 120 l28 28 63 -19 62 -20 0 -44 c0 -72 -57 -172 -224 -393
-49 -67 -159 -168 -208 -193 -20 -10 -56 -22 -79 -25 -33 -6 -39 -9 -24 -14
11 -4 26 -3 33 2 8 8 12 6 12 -5 0 -8 -6 -18 -12 -20 -8 -3 -6 -6 5 -6 11 -1
17 6 17 19 0 25 28 26 46 3 7 -10 16 -14 20 -10 5 4 2 12 -5 16 -9 6 -10 11
-2 15 6 4 16 4 23 0 6 -4 8 -3 5 3 -3 5 3 17 15 27 20 18 21 18 14 -10 -11
-49 -63 -146 -115 -216 -58 -78 -153 -157 -234 -195 -55 -26 -66 -42 -37 -51
8 -3 11 1 8 10 -4 8 -1 15 5 16 63 7 80 11 90 21 6 6 17 11 25 11 7 0 19 6 26
12 8 7 23 20 35 28 11 8 21 20 21 27 0 6 4 15 10 18 16 10 -7 -42 -40 -90 -55
-79 -155 -132 -256 -135 -90 -3 -90 -3 -90 29 0 17 3 28 7 25 5 -2 6 -11 3
-18 -3 -8 0 -17 6 -21 7 -4 9 2 6 21 -6 32 10 68 26 58 7 -4 8 -3 4 5 -4 6
-13 9 -19 5 -7 -3 -4 1 6 9 9 8 17 19 17 26 0 6 5 11 10 11 6 0 10 6 10 13 -1
6 -21 -10 -47 -38 -46 -51 -103 -159 -144 -275 -25 -72 -39 -95 -39 -63 0 11
-7 24 -16 27 -13 5 -14 9 -4 21 10 12 9 15 -4 15 -9 0 -16 7 -16 16 0 9 -5 12
-11 8 -8 -5 -10 1 -7 19 3 16 1 25 -6 24 -6 -1 -10 6 -10 15 1 10 -2 16 -6 13
-5 -3 -11 3 -15 14 -3 11 -12 22 -20 25 -11 4 -12 1 -5 -12 5 -9 21 -42 34
-72 14 -30 38 -75 53 -100 l27 -45 -39 30 c-22 16 -42 33 -43 37 -2 5 -8 6
-13 2 -5 -3 -9 2 -9 10 0 9 -6 13 -14 10 -7 -3 -16 2 -20 11 -3 10 -12 15 -21
11 -8 -3 -15 -1 -15 5 0 6 -5 7 -10 4 -6 -4 -17 -3 -23 2 -12 7 16 -18 38 -35
98 -75 389 -227 510 -265 45 -14 116 -30 160 -36 44 -6 98 -16 120 -22 67 -18
196 -87 263 -140 75 -60 154 -157 148 -182 -2 -9 -1 -15 2 -13 12 7 13 -160 2
-189 -16 -41 10 -27 33 19 18 34 19 46 10 107 -14 85 -50 146 -134 224 -130
119 -275 193 -417 209 -112 14 -242 55 -364 116 -68 34 -126 65 -129 68 -4 4
0 29 8 55 13 45 18 50 76 76 34 15 80 34 102 40 22 7 70 27 107 43 l68 31 80
-27 c121 -40 222 -52 311 -36 41 7 171 16 289 21 118 4 233 12 255 18 37 10
41 9 60 -17 58 -79 109 -134 185 -199 108 -93 157 -117 237 -118 55 0 65 3 92
29 33 32 41 78 20 117 -6 12 14 0 48 -27 70 -57 145 -93 211 -101 62 -7 92 0
130 31 22 19 40 25 79 24 60 0 91 17 117 67 19 36 19 36 -1 84 -26 62 -130
224 -210 329 l-64 82 225 0 c149 0 226 4 226 10 0 7 -78 10 -231 10 l-232 -1
-57 63 c-32 35 -82 77 -111 93 -53 30 -56 30 -199 29 -80 -1 -197 -6 -260 -11
-63 -5 -153 -6 -200 -2 -119 11 -313 75 -518 171 l-73 34 57 69 c78 96 183
257 209 321 28 69 30 71 50 40 31 -47 150 -134 245 -180 231 -112 489 -129
582 -39 31 30 49 81 41 115 -6 26 -41 68 -56 68 -5 0 3 -10 18 -22 l28 -22
-22 -17 c-13 -10 -17 -20 -11 -24 5 -3 10 -1 10 4 0 6 5 11 11 11 15 0 5 -52
-16 -84 -72 -109 -366 -87 -619 47 -74 39 -236 175 -236 199 0 5 5 6 11 2 6
-3 14 -1 18 5 5 8 48 -2 147 -35 219 -72 204 -65 204 -96 0 -34 24 -48 83 -48
64 0 132 -26 145 -55 13 -28 32 -30 132 -15 51 8 49 8 -30 7 -73 -2 -85 0 -88
16 -2 10 3 17 12 17 9 0 16 5 16 11 0 7 -9 9 -24 5 -13 -3 -43 1 -66 9 -23 8
-58 15 -76 15 -19 0 -34 4 -34 9 0 5 -7 11 -14 14 -10 4 -13 1 -9 -9 3 -7 1
-14 -5 -14 -16 0 -35 29 -29 44 5 12 15 11 69 -5 51 -17 238 -41 238 -32 0 2
-33 19 -72 39 -40 20 -89 50 -108 65 -19 16 -42 29 -51 29 -10 0 -19 11 -23
31 -3 18 -20 43 -38 58 -94 77 -178 172 -217 244 -37 67 -46 77 -70 77 -20 0
-35 -10 -53 -36 l-26 -36 -18 37 c-19 40 -46 55 -100 55 -27 0 -42 -9 -74 -41
-40 -42 -53 -39 -24 6 9 13 14 29 12 34 -1 5 -29 -26 -61 -69z m192 49 c18 -6
38 -24 46 -40 15 -28 20 -123 9 -154 -11 -28 -62 -47 -110 -40 -39 5 -43 4
-46 -17 -2 -19 -9 -23 -36 -21 -18 0 -36 3 -38 6 -3 2 -2 42 2 87 6 71 11 88
38 124 19 24 46 46 66 53 19 7 35 12 36 12 1 1 15 -4 33 -10z m217 -91 c48
-82 123 -166 197 -221 45 -34 62 -66 53 -102 -13 -53 -38 -52 -217 9 -90 31
-171 59 -179 63 -16 7 -25 10 -37 12 -5 1 -1 6 7 11 13 9 13 10 0 10 -13 0
-13 1 0 10 11 7 12 12 3 21 -8 8 -13 3 -18 -19 l-6 -30 -60 20 c-58 19 -59 21
-43 39 9 10 30 19 45 19 70 0 105 36 115 116 7 64 45 123 81 124 6 0 33 -37
59 -82z m-452 -78 c-26 -33 -53 -60 -60 -60 -8 0 12 31 44 69 69 83 83 76 16
-9z m38 -30 c-4 -57 -5 -60 -25 -54 -46 14 -46 18 -10 67 19 26 36 47 36 47 1
0 0 -27 -1 -60z m-7 -136 c-1 -42 -8 -60 -48 -120 -25 -39 -61 -100 -78 -135
-35 -70 -92 -230 -84 -237 2 -3 7 4 11 14 58 167 174 398 182 362 5 -25 -56
-181 -104 -263 -47 -83 -82 -127 -94 -120 -4 3 -13 -2 -20 -10 -16 -20 -73
-19 -112 1 -40 21 -123 98 -148 138 -10 18 -17 41 -14 52 3 11 38 43 78 73 41
29 133 113 206 186 l132 132 47 -12 46 -12 0 -49z m48 10 c-20 -31 -23 -30
-23 5 0 24 3 28 20 24 18 -5 18 -7 3 -29z m699 -123 c18 -15 56 -40 83 -55
l50 -27 -41 5 c-23 3 -71 15 -108 27 -52 15 -66 24 -62 35 3 9 6 20 6 25 0 6
5 7 10 4 6 -3 10 -1 10 4 0 18 18 12 52 -18z m-752 -461 c79 -40 231 -100 365
-144 138 -46 245 -53 460 -31 244 26 346 9 435 -71 59 -54 238 -279 246 -309
3 -14 11 -29 18 -33 32 -21 136 -203 136 -239 0 -9 -16 -14 -47 -15 -44 -1
-45 -2 -10 -5 43 -5 44 -7 18 -34 -29 -31 -86 -34 -154 -9 -148 56 -395 302
-369 368 4 10 1 13 -7 8 -7 -5 -10 -14 -7 -22 8 -20 -16 -29 -134 -53 -220
-44 -400 -46 -590 -7 -41 9 -138 22 -215 30 -142 15 -286 51 -360 88 -22 11
-50 26 -62 32 -25 12 -24 24 10 96 21 43 24 45 71 48 166 11 513 -94 550 -166
17 -33 87 -72 127 -72 28 0 62 25 78 58 l12 23 29 -21 c37 -27 68 -25 124 6
37 21 66 27 149 34 95 7 106 6 159 -17 32 -14 65 -22 76 -19 12 4 24 0 33 -10
8 -10 38 -28 68 -41 97 -43 170 -118 150 -156 -6 -10 -8 -24 -6 -31 6 -14 121
-76 142 -76 21 0 19 31 -4 82 -11 24 -22 55 -26 70 -3 15 -32 58 -66 95 -33
37 -73 91 -88 118 -42 73 -73 98 -112 93 -28 -4 -38 0 -65 28 -26 29 -38 34
-75 34 -24 0 -60 -5 -79 -10 -78 -23 -173 -29 -240 -15 -86 19 -139 19 -161
-1 -16 -14 -19 -14 -42 1 -15 9 -52 17 -93 19 -39 2 -95 13 -129 26 -33 12
-139 50 -235 84 -96 33 -181 65 -189 70 -19 12 -7 73 20 102 13 13 24 24 26
24 2 0 30 -13 63 -30z m67 -176 c103 -37 217 -77 253 -90 39 -14 88 -24 123
-24 69 0 91 -10 112 -50 20 -38 19 -76 -4 -127 -27 -59 -50 -68 -113 -47 -38
12 -55 25 -71 52 -16 26 -39 43 -91 68 -129 59 -225 83 -433 109 -35 5 -53 12
-53 20 0 11 81 155 87 155 1 0 86 -30 190 -66z m1054 -133 c22 -22 29 -39 29
-68 0 -78 -44 -102 -118 -64 -34 17 -50 19 -148 12 -87 -6 -121 -13 -170 -35
-47 -21 -65 -25 -85 -18 -38 15 -47 32 -51 99 -2 48 1 66 14 80 16 15 23 15
111 0 114 -21 149 -20 252 2 117 26 132 26 166 -8z m131 -58 c14 -16 33 -42
41 -58 8 -17 45 -64 81 -104 44 -49 71 -89 80 -120 8 -25 22 -63 31 -85 9 -21
13 -41 10 -44 -3 -4 -32 8 -63 26 -53 29 -57 34 -55 66 3 49 -67 125 -151 166
-82 39 -91 49 -71 86 8 16 15 39 15 51 0 21 23 42 46 43 5 0 22 -12 36 -27z
m-1517 -104 c0 -8 11 -16 25 -17 14 -2 29 -8 35 -13 5 -5 19 -9 32 -9 13 0 23
-4 23 -9 0 -6 8 -10 18 -10 9 0 42 -7 72 -15 30 -9 65 -16 78 -16 13 0 21 -3
19 -7 -3 -5 16 -8 41 -9 92 -2 162 -8 162 -14 0 -3 21 -7 48 -7 26 -1 64 -9
85 -18 20 -8 39 -15 42 -15 3 0 31 0 63 -1 l57 -1 -60 -14 c-87 -20 -354 -29
-445 -15 -136 21 -341 79 -388 110 -12 7 -12 12 0 30 7 12 18 19 25 17 8 -3
10 1 6 12 -3 9 -2 14 2 10 5 -5 15 1 23 13 15 22 37 21 37 -2z m-67 -122 c4 0
6 -3 5 -8 -2 -5 9 -4 24 2 22 8 24 7 14 -5 -9 -11 -8 -15 4 -20 10 -4 14 -2 9
5 -4 7 0 9 12 6 11 -3 39 -11 64 -17 25 -7 51 -17 59 -23 12 -9 13 -9 7 1 -11
18 9 15 25 -4 10 -12 24 -15 54 -11 22 3 46 2 54 -2 18 -12 -66 -23 -159 -22
-72 0 -221 35 -272 62 -20 11 -20 11 2 34 18 19 27 22 41 15 26 -14 32 -12 25
8 -5 14 -3 13 9 -3 9 -11 19 -19 23 -18z m1452 -33 c0 -6 11 -23 25 -38 14
-15 25 -32 25 -38 0 -6 3 -9 6 -6 3 3 24 -12 47 -33 23 -21 45 -39 50 -39 4 0
7 -7 7 -15 0 -9 6 -12 17 -8 10 4 14 2 10 -4 -3 -5 10 -17 29 -26 19 -9 37
-24 40 -32 4 -8 10 -12 15 -9 5 3 9 -3 9 -13 0 -14 2 -15 9 -5 7 11 11 11 23
-2 9 -8 18 -12 22 -9 3 4 6 -1 6 -10 0 -10 -15 -27 -32 -38 -80 -50 -225 6
-353 135 -77 77 -165 184 -165 200 0 5 22 6 48 4 29 -3 53 0 59 7 14 15 103
-4 103 -21z m-1628 -14 c-12 -10 -53 -28 -90 -41 -37 -12 -83 -30 -102 -39
-19 -10 -46 -21 -60 -25 -24 -7 -24 -7 -9 11 9 11 14 25 12 32 -3 6 0 12 7 12
6 0 10 10 8 23 -3 21 0 22 60 21 34 0 62 4 62 8 0 5 8 5 18 0 20 -11 72 -5 87
9 5 5 14 9 20 9 5 -1 0 -9 -13 -20z m1396 11 c-2 -5 9 -20 25 -35 21 -19 26
-32 23 -52 -3 -15 -8 -29 -10 -32 -3 -3 0 -12 7 -20 10 -13 9 -14 -1 -8 -12 7
-12 4 -1 -15 7 -13 12 -33 11 -44 -2 -11 4 -29 13 -40 9 -11 14 -14 10 -7 -3
6 -8 36 -11 65 -2 28 -6 64 -8 80 -2 15 0 27 4 27 13 0 111 -144 106 -157 -3
-7 -1 -13 5 -13 23 0 1 -25 -27 -31 l-29 -7 33 -1 c29 -1 31 -3 23 -20 -29
-53 -129 -63 -211 -21 -53 27 -112 79 -103 93 4 6 1 7 -7 2 -9 -5 -33 14 -76
61 -35 38 -70 76 -78 84 -12 12 -36 62 -36 73 0 1 45 3 100 4 73 1 98 -2 93
-10 -4 -7 -1 -7 9 1 9 7 20 12 24 11 5 -1 16 1 24 4 8 3 29 8 45 10 17 2 33 5
38 6 4 0 6 -3 5 -8z m-685 -851 c3 -11 1 -20 -4 -20 -5 0 -9 9 -9 20 0 11 2
20 4 20 2 0 6 -9 9 -20z m4 -62 c-3 -7 -5 -2 -5 12 0 14 2 19 5 13 2 -7 2 -19
0 -25z"/>
<path d="M3392 2375 c2 -15 12 -21 38 -23 19 -2 48 -13 65 -25 51 -36 125
-110 125 -126 1 -13 2 -13 11 2 11 19 9 21 -113 120 -46 36 -65 46 -83 41 -16
-4 -26 0 -34 13 -11 17 -12 17 -9 -2z"/>
<path d="M4610 1036 c0 -14 5 -26 10 -26 6 0 10 9 10 19 0 11 -4 23 -10 26 -6
4 -10 -5 -10 -19z"/>
<path d="M4620 941 c0 -11 4 -22 9 -25 4 -3 6 6 3 19 -5 30 -12 33 -12 6z"/>
<path d="M4641 864 c0 -11 3 -14 6 -6 3 7 2 16 -1 19 -3 4 -6 -2 -5 -13z"/>
<path d="M2800 1190 c0 -5 5 -10 11 -10 5 0 7 5 4 10 -3 6 -8 10 -11 10 -2 0
-4 -4 -4 -10z"/>
<path d="M2805 1150 c3 -5 8 -10 11 -10 2 0 4 5 4 10 0 6 -5 10 -11 10 -5 0
-7 -4 -4 -10z"/>
<path d="M2710 1071 c0 -5 5 -13 10 -16 6 -3 10 -2 10 4 0 5 -4 13 -10 16 -5
3 -10 2 -10 -4z"/>
<path d="M2685 1060 c3 -5 8 -10 11 -10 2 0 4 5 4 10 0 6 -5 10 -11 10 -5 0
-7 -4 -4 -10z"/>
<path d="M2861 1024 c0 -11 3 -14 6 -6 3 7 2 16 -1 19 -3 4 -6 -2 -5 -13z"/>
<path d="M4300 900 c0 -5 5 -10 11 -10 5 0 7 5 4 10 -3 6 -8 10 -11 10 -2 0
-4 -4 -4 -10z"/>
<path d="M2380 1014 c0 -2 9 -8 20 -14 15 -8 18 -8 14 3 -4 11 -34 21 -34 11z"/>
<path d="M3721 1006 c-16 -19 -11 -29 8 -17 7 5 12 14 9 21 -3 9 -8 7 -17 -4z"/>
<path d="M3673 995 c0 -8 5 -11 10 -8 7 4 8 -1 3 -13 -5 -14 -4 -16 4 -8 6 6
8 18 4 27 -8 21 -21 22 -21 2z"/>
<path d="M3740 981 c0 -5 8 -11 18 -13 10 -3 19 0 19 6 0 7 -9 13 -19 13 -10
1 -18 -2 -18 -6z"/>
<path d="M3780 860 c0 -5 5 -10 10 -10 6 0 10 5 10 10 0 6 -4 10 -10 10 -5 0
-10 -4 -10 -10z"/>
<path d="M3995 719 c-3 -4 2 -6 10 -5 21 3 28 13 10 13 -9 0 -18 -4 -20 -8z"/>
<path d="M4040 721 c0 -6 4 -13 10 -16 6 -3 7 1 4 9 -7 18 -14 21 -14 7z"/>
<path d="M4160 2534 l0 -55 32 3 c72 7 69 108 -2 108 -30 0 -30 -1 -30 -56z
m58 34 c18 -18 14 -56 -7 -68 -30 -15 -31 -14 -31 35 0 46 13 58 38 33z"/>
<path d="M4339 2575 c-9 -10 -13 -28 -11 -55 5 -49 22 -53 22 -6 0 19 6 37 13
39 9 4 8 6 -2 6 -11 1 -11 4 -1 16 16 19 -1 20 -21 0z"/>
<path d="M4760 2580 c0 -5 5 -10 10 -10 6 0 10 5 10 10 0 6 -4 10 -10 10 -5 0
-10 -4 -10 -10z"/>
<path d="M4276 2561 c-26 -29 -18 -75 14 -78 l25 -3 -25 12 -25 12 28 4 c31 4
32 9 13 46 -13 25 -13 25 -30 7z m24 -26 c0 -8 -7 -15 -15 -15 -16 0 -20 12
-8 23 11 12 23 8 23 -8z"/>
<path d="M4712 2568 c-6 -6 -9 -16 -7 -22 2 -6 6 -23 9 -38 4 -18 13 -28 24
-27 10 0 12 3 5 6 -15 5 -18 60 -4 65 5 2 3 8 -4 15 -9 8 -16 8 -23 1z"/>
<path d="M4380 2540 c-14 -26 3 -60 30 -60 27 0 44 34 30 60 -6 11 -19 20 -30
20 -11 0 -24 -9 -30 -20z m45 -20 c0 -27 -22 -39 -31 -16 -8 22 3 49 19 43 6
-2 12 -14 12 -27z"/>
<path d="M4460 2519 c0 -21 5 -39 10 -39 6 0 10 14 10 30 0 17 5 30 10 30 19
0 10 16 -10 17 -17 2 -20 -4 -20 -38z"/>
<path d="M4510 2519 c0 -47 17 -52 22 -6 2 17 8 32 13 32 6 0 11 -15 13 -32 4
-44 22 -42 22 2 0 19 5 35 10 35 6 0 10 -16 10 -35 0 -19 5 -35 11 -35 6 0 9
16 7 38 l-3 37 -52 1 -53 1 0 -38z"/>
<path d="M4640 2551 c0 -6 6 -8 14 -5 8 3 17 1 21 -5 3 -6 0 -11 -8 -11 -19 0
-38 -23 -29 -37 4 -6 19 -11 33 -11 24 0 25 3 20 37 -5 27 -12 37 -29 39 -12
2 -22 -1 -22 -7z m40 -40 c0 -12 -20 -25 -27 -18 -7 7 6 27 18 27 5 0 9 -4 9
-9z"/>
<path d="M4760 2520 c0 -22 5 -40 10 -40 6 0 10 18 10 40 0 22 -4 40 -10 40
-5 0 -10 -18 -10 -40z"/>
<path d="M4800 2540 c-14 -26 3 -60 30 -60 27 0 44 34 30 60 -6 11 -19 20 -30
20 -11 0 -24 -9 -30 -20z m45 -20 c0 -27 -22 -39 -31 -16 -8 22 3 49 19 43 6
-2 12 -14 12 -27z"/>
<path d="M4880 2519 c0 -47 17 -52 22 -6 2 17 8 32 13 32 6 0 11 -15 13 -32 4
-41 22 -44 22 -4 0 32 -14 47 -47 49 -20 1 -23 -4 -23 -39z"/>
<path d="M5002 2548 c-26 -26 -6 -69 33 -67 18 0 17 2 -5 12 l-25 11 28 4 c15
2 27 9 27 16 0 15 -20 36 -35 36 -6 0 -16 -5 -23 -12z m38 -13 c0 -8 -7 -15
-15 -15 -16 0 -20 12 -8 23 11 12 23 8 23 -8z"/>
<path d="M5070 2519 c0 -47 17 -52 22 -6 2 17 8 32 13 32 6 0 11 -15 13 -32 2
-18 8 -33 13 -33 6 0 9 17 7 38 -3 34 -6 37 -35 39 -32 1 -33 0 -33 -38z"/>
<path d="M4160 2366 c0 -51 1 -53 26 -52 48 2 59 61 14 73 -11 3 -20 12 -20
19 0 8 -4 14 -10 14 -5 0 -10 -24 -10 -54z m50 -16 c0 -10 -5 -22 -10 -25 -13
-8 -24 20 -16 41 8 20 26 9 26 -16z"/>
<path d="M4710 2410 c0 -5 5 -10 10 -10 6 0 10 5 10 10 0 6 -4 10 -10 10 -5 0
-10 -4 -10 -10z"/>
<path d="M4412 2398 c-6 -6 -9 -16 -7 -22 2 -6 6 -23 9 -38 4 -18 13 -28 24
-27 10 0 12 3 5 6 -15 5 -18 60 -4 65 5 2 3 8 -4 15 -9 8 -16 8 -23 1z"/>
<path d="M4761 2387 c-20 -37 -11 -72 19 -74 l25 -3 -25 12 -25 12 28 4 c31 4
34 18 9 50 l-18 23 -13 -24z m29 -22 c0 -8 -7 -15 -15 -15 -16 0 -20 12 -8 23
11 12 23 8 23 -8z"/>
<path d="M4250 2375 c-26 -31 13 -82 44 -56 19 16 21 42 4 59 -16 16 -33 15
-48 -3z m40 -25 c0 -10 -5 -22 -10 -25 -13 -8 -24 20 -16 41 8 20 26 9 26 -16z"/>
<path d="M4320 2361 c0 -33 17 -51 48 -48 19 1 22 7 22 39 0 46 -18 51 -22 6
-2 -18 -7 -33 -13 -33 -5 0 -11 15 -13 33 -4 40 -22 43 -22 3z"/>
<path d="M4460 2371 c-25 -47 36 -83 64 -38 8 12 8 22 0 35 -16 25 -51 27 -64
3z m45 -21 c0 -27 -22 -39 -31 -16 -8 22 3 49 19 43 6 -2 12 -14 12 -27z"/>
<path d="M4540 2349 c0 -47 17 -52 22 -6 2 17 8 32 13 32 6 0 11 -15 13 -32 2
-18 8 -33 13 -33 6 0 9 17 7 38 -3 34 -6 37 -35 39 -32 1 -33 0 -33 -38z"/>
<path d="M4630 2348 c0 -46 18 -51 22 -5 2 17 8 32 13 32 6 0 11 -15 13 -32 4
-41 22 -44 22 -4 0 33 -17 51 -48 48 -19 -1 -22 -7 -22 -39z"/>
<path d="M4710 2350 c0 -22 5 -40 10 -40 6 0 10 18 10 40 0 22 -4 40 -10 40
-5 0 -10 -18 -10 -40z"/>
<path d="M4820 2349 c0 -21 5 -39 10 -39 6 0 10 14 10 30 0 17 5 30 10 30 19
0 10 16 -10 17 -17 2 -20 -4 -20 -38z"/>
<path d="M4882 2378 c-26 -26 -6 -69 33 -67 18 0 17 2 -5 11 l-25 11 23 5 c17
2 22 9 20 25 -3 25 -28 33 -46 15z m38 -19 c0 -5 -7 -9 -15 -9 -15 0 -20 12
-9 23 8 8 24 -1 24 -14z"/>
<path d="M4030 2086 c0 -2 7 -9 15 -16 13 -11 14 -10 9 4 -5 14 -24 23 -24 12z"/>
<path d="M4120 2030 c-13 -8 -12 -10 3 -10 9 0 17 5 17 10 0 12 -1 12 -20 0z"/>
<path d="M2746 1557 c3 -10 9 -15 12 -12 3 3 0 11 -7 18 -10 9 -11 8 -5 -6z"/>
<path d="M4970 1324 l0 -55 32 3 c72 7 69 108 -2 108 -30 0 -30 -1 -30 -56z
m58 34 c18 -18 14 -56 -7 -68 -30 -15 -31 -14 -31 35 0 46 13 58 38 33z"/>
<path d="M5153 1365 c-11 -18 -4 -95 8 -95 8 0 15 58 10 84 -1 5 4 13 11 17
10 7 9 9 -4 9 -9 0 -21 -7 -25 -15z"/>
<path d="M5570 1370 c0 -5 5 -10 10 -10 6 0 10 5 10 10 0 6 -4 10 -10 10 -5 0
-10 -4 -10 -10z"/>
<path d="M5086 1351 c-26 -29 -18 -75 14 -78 l25 -3 -25 12 -25 12 28 4 c31 4
32 9 13 46 -13 25 -13 25 -30 7z m24 -26 c0 -8 -7 -15 -15 -15 -16 0 -20 12
-8 23 11 12 23 8 23 -8z"/>
<path d="M5522 1358 c-6 -6 -9 -16 -7 -22 2 -6 6 -23 9 -38 4 -18 13 -28 24
-27 10 0 12 3 5 6 -15 5 -18 60 -4 65 5 2 3 8 -4 15 -9 8 -16 8 -23 1z"/>
<path d="M5190 1331 c-25 -47 36 -83 64 -38 8 12 8 22 0 35 -16 25 -51 27 -64
3z m45 -21 c0 -27 -22 -39 -31 -16 -8 22 3 49 19 43 6 -2 12 -14 12 -27z"/>
<path d="M5270 1309 c0 -21 5 -39 10 -39 6 0 10 14 10 30 0 17 5 30 10 30 19
0 10 16 -10 17 -17 2 -20 -4 -20 -38z"/>
<path d="M5320 1309 c0 -47 17 -52 22 -6 2 17 8 32 13 32 6 0 11 -15 13 -32 4
-44 22 -42 22 2 0 19 5 35 10 35 6 0 10 -16 10 -35 0 -19 5 -35 11 -35 6 0 9
16 7 38 l-3 37 -52 1 -53 1 0 -38z"/>
<path d="M5450 1341 c0 -6 6 -8 14 -5 8 3 17 1 21 -5 3 -6 0 -11 -8 -11 -19 0
-38 -23 -29 -37 4 -6 19 -11 33 -11 24 0 25 3 20 37 -5 27 -12 37 -29 39 -12
2 -22 -1 -22 -7z m40 -40 c0 -12 -20 -25 -27 -18 -7 7 6 27 18 27 5 0 9 -4 9
-9z"/>
<path d="M5570 1310 c0 -22 5 -40 10 -40 6 0 10 18 10 40 0 22 -4 40 -10 40
-5 0 -10 -18 -10 -40z"/>
<path d="M5610 1331 c-25 -47 36 -83 64 -38 8 12 8 22 0 35 -16 25 -51 27 -64
3z m45 -21 c0 -27 -22 -39 -31 -16 -8 22 3 49 19 43 6 -2 12 -14 12 -27z"/>
<path d="M5690 1309 c0 -47 17 -52 22 -6 2 17 8 32 13 32 6 0 11 -15 13 -32 4
-41 22 -44 22 -4 0 32 -14 47 -47 49 -20 1 -23 -4 -23 -39z"/>
<path d="M5814 1336 c-12 -31 0 -61 26 -63 l25 -3 -25 12 -25 12 28 4 c29 4
35 20 15 40 -16 16 -37 15 -44 -2z m36 -11 c0 -8 -7 -15 -15 -15 -16 0 -20 12
-8 23 11 12 23 8 23 -8z"/>
<path d="M5890 1309 c0 -22 5 -39 10 -39 6 0 10 13 10 29 0 17 5 33 10 36 6 4
10 -8 10 -29 0 -20 5 -36 11 -36 6 0 9 16 7 38 -3 33 -6 37 -30 38 -26 1 -28
-2 -28 -37z"/>
<path d="M5120 1155 c0 -30 5 -55 10 -55 6 0 10 25 10 55 0 30 -4 55 -10 55
-5 0 -10 -25 -10 -55z"/>
<path d="M5240 1191 c0 -14 -5 -18 -19 -14 -26 7 -46 -29 -31 -56 7 -13 20
-19 40 -19 29 1 30 2 30 55 0 29 -4 53 -10 53 -5 0 -10 -9 -10 -19z m-5 -51
c0 -13 -6 -25 -12 -27 -16 -6 -27 21 -19 43 9 23 31 11 31 -16z"/>
<path d="M4976 1164 c-19 -18 -19 -20 -6 -45 6 -10 21 -19 33 -18 l22 0 -22 9
c-14 6 -23 18 -23 30 0 12 9 24 23 30 16 6 17 9 5 9 -9 1 -24 -6 -32 -15z"/>
<path d="M5042 1168 c-25 -25 -6 -68 30 -68 9 0 22 9 28 20 22 40 -26 80 -58
48z m43 -28 c0 -13 -6 -25 -12 -27 -16 -6 -27 21 -19 43 9 23 31 11 31 -16z"/>
<path d="M5282 1168 c-26 -26 -6 -69 33 -67 18 0 17 2 -5 11 l-25 11 23 5 c17
2 22 9 20 25 -3 25 -28 33 -46 15z m38 -19 c0 -5 -7 -9 -15 -9 -15 0 -20 12
-9 23 8 8 24 -1 24 -14z"/>
<path d="M5392 1168 c-26 -26 -6 -69 33 -67 18 0 18 1 -3 10 -29 11 -27 53 3
57 15 2 24 -6 33 -30 8 -21 8 -36 2 -42 -13 -13 -13 -29 1 -20 9 5 49 87 49
100 0 2 -4 4 -9 4 -5 0 -12 -12 -16 -27 l-7 -28 -10 28 c-7 20 -16 27 -37 27
-15 0 -32 -5 -39 -12z"/>
<path d="M5530 1165 c-17 -20 -9 -48 18 -61 15 -7 20 -14 13 -18 -6 -4 -15 -4
-21 -1 -5 3 -10 1 -10 -4 0 -15 33 -14 48 1 7 7 12 31 12 55 0 39 -2 43 -24
43 -13 0 -29 -7 -36 -15z m40 -25 c0 -10 -5 -22 -10 -25 -13 -8 -24 20 -16 41
8 20 26 9 26 -16z"/>
<path d="M5610 1139 c0 -22 5 -39 10 -39 6 0 10 13 10 29 0 17 5 33 10 36 6 4
10 -8 10 -29 0 -20 5 -36 11 -36 6 0 9 16 7 38 -3 33 -6 37 -30 38 -26 1 -28
-2 -28 -37z"/>
<path d="M5694 1166 c-3 -8 -4 -25 -2 -38 2 -18 10 -23 33 -25 18 -1 22 1 10
4 -34 9 -41 23 -11 23 23 0 27 4 24 23 -4 26 -45 37 -54 13z m44 -14 c2 -7 -6
-12 -17 -12 -21 0 -27 11 -14 24 9 9 26 2 31 -12z"/>
<path d="M2500 1130 c-9 -6 -10 -10 -3 -10 6 0 15 5 18 10 8 12 4 12 -15 0z"/>
<path d="M2206 952 c-3 -5 1 -9 9 -9 8 0 12 4 9 9 -3 4 -7 8 -9 8 -2 0 -6 -4
-9 -8z"/>
<path d="M65 741 c17 -5 115 -17 218 -26 104 -8 261 -29 349 -45 l160 -30 127
-73 c154 -91 298 -159 412 -198 107 -36 302 -70 383 -67 124 4 469 -42 616
-83 41 -11 120 -36 175 -55 62 -21 137 -38 197 -44 72 -8 135 -24 239 -61 77
-27 146 -49 152 -48 7 0 -6 7 -28 15 -21 8 -49 23 -60 34 -12 11 -24 18 -27
14 -4 -3 -20 2 -37 10 -17 9 -34 16 -38 17 -5 0 -30 7 -58 15 -27 9 -72 18
-100 21 -27 3 -53 10 -57 17 -6 8 -8 8 -8 -1 0 -13 -47 -8 -66 8 -6 5 -19 7
-27 3 -9 -3 -35 3 -59 14 -24 11 -65 25 -93 32 -27 7 -81 21 -120 31 -97 27
-216 47 -348 59 -170 15 -195 20 -233 46 -36 25 -89 40 -79 23 4 -5 11 -7 16
-4 5 4 9 -1 9 -9 0 -9 7 -16 15 -16 8 0 15 -4 15 -10 0 -15 -59 -12 -177 11
-175 33 -221 47 -364 114 -136 64 -159 76 -326 179 -80 48 -97 55 -130 51 -21
-3 -69 2 -108 10 -140 28 -617 69 -540 46z"/>
<path d="M1627 429 c7 -7 15 -10 18 -7 3 3 -2 9 -12 12 -14 6 -15 5 -6 -5z"/>
<path d="M1650 400 c0 -5 5 -10 11 -10 5 0 7 5 4 10 -3 6 -8 10 -11 10 -2 0
-4 -4 -4 -10z"/>
<path d="M3138 283 c12 -2 30 -2 40 0 9 3 -1 5 -23 4 -22 0 -30 -2 -17 -4z"/>
<path d="M3196 271 c-3 -4 3 -16 14 -26 12 -10 20 -13 20 -7 0 7 -4 12 -10 12
-5 0 -10 5 -10 11 0 6 7 8 16 5 8 -3 12 -2 9 4 -8 12 -32 13 -39 1z"/>
<path d="M2605 190 c-3 -5 -1 -10 4 -10 6 0 11 5 11 10 0 6 -2 10 -4 10 -3 0
-8 -4 -11 -10z"/>
<path d="M2666 185 c-3 -8 -1 -15 4 -15 6 0 10 7 10 15 0 8 -2 15 -4 15 -2 0
-6 -7 -10 -15z"/>
<path d="M3240 191 c0 -6 4 -13 10 -16 6 -3 7 1 4 9 -7 18 -14 21 -14 7z"/>
<path d="M2880 125 c0 -8 8 -15 18 -14 10 0 12 3 4 6 -6 2 -10 9 -6 14 3 5 0
9 -5 9 -6 0 -11 -7 -11 -15z"/>
<path d="M2940 116 c0 -2 8 -10 18 -17 15 -13 16 -12 3 4 -13 16 -21 21 -21
13z"/>
<path d="M3118 3 c7 -3 16 -2 19 1 4 3 -2 6 -13 5 -11 0 -14 -3 -6 -6z"/>
</g>
</svg>
